<svg xmlns="http://www.w3.org/2000/svg" width="720" height="420" viewBox="0 0 720 420">
<rect width="100%" height="100%" fill="white"/>
<text x="360.0" y="28" text-anchor="middle" font-family="Arial" font-size="18" font-weight="700">Objective Convergence</text>
<line x1="70" y1="360" x2="690" y2="360" stroke="#111827"/>
<line x1="70" y1="50" x2="70" y2="360" stroke="#111827"/>
<text x="380.0" y="402" text-anchor="middle" font-family="Arial" font-size="12">iteration / trial</text>
<text x="18" y="205.0" text-anchor="middle" font-family="Arial" font-size="12" transform="rotate(-90 18 205.0)">objective</text>
<text x="62" y="55" text-anchor="end" font-family="Arial" font-size="10">18.9</text>
<text x="62" y="360" text-anchor="end" font-family="Arial" font-size="10">3.35</text>
<polyline fill="none" stroke="#2563eb" stroke-width="2.2" points="70.00,360.00 114.29,224.99 158.57,125.33 202.86,74.73 247.14,54.66 291.43,50.00 335.71,52.47 380.00,58.54 424.29,65.95 468.57,72.83 512.86,78.06 557.14,81.34 601.43,82.91 645.71,83.27 690.00,82.92"/>
<line x1="540" y1="70" x2="560" y2="70" stroke="#2563eb" stroke-width="2.2"/>
<text x="566" y="74" font-family="Arial" font-size="12">objective</text>
</svg>