<svg xmlns="http://www.w3.org/2000/svg" width="720" height="420" viewBox="0 0 720 420">
<rect width="100%" height="100%" fill="white"/>
<text x="360.0" y="28" text-anchor="middle" font-family="Arial" font-size="18" font-weight="700">Residual / Gap Convergence</text>
<line x1="70" y1="360" x2="690" y2="360" stroke="#111827"/>
<line x1="70" y1="50" x2="70" y2="360" stroke="#111827"/>
<text x="380.0" y="402" text-anchor="middle" font-family="Arial" font-size="12">iteration / trial</text>
<text x="18" y="205.0" text-anchor="middle" font-family="Arial" font-size="12" transform="rotate(-90 18 205.0)">residual / gap</text>
<text x="62" y="55" text-anchor="end" font-family="Arial" font-size="10">3.7</text>
<text x="62" y="360" text-anchor="end" font-family="Arial" font-size="10">0.0532</text>
<polyline fill="none" stroke="#2563eb" stroke-width="2.2" points="70.00,50.00 114.29,172.59 158.57,272.21 202.86,296.97 247.14,292.12 291.43,296.74 335.71,309.23 380.00,323.75 424.29,336.76 468.57,346.33 512.86,352.04 557.14,355.22 601.43,357.20 645.71,358.73 690.00,360.00"/>
<line x1="540" y1="70" x2="560" y2="70" stroke="#2563eb" stroke-width="2.2"/>
<text x="566" y="74" font-family="Arial" font-size="12">primal_residual</text>
<polyline fill="none" stroke="#dc2626" stroke-width="2.2" points="70.00,254.78 114.29,87.04 158.57,50.00 202.86,98.65 247.14,176.72 291.43,248.21 335.71,299.44 380.00,326.68 424.29,334.51 468.57,337.21 512.86,341.37 557.14,346.72 601.43,351.97 645.71,356.44 690.00,360.00"/>
<line x1="540" y1="88" x2="560" y2="88" stroke="#dc2626" stroke-width="2.2"/>
<text x="566" y="92" font-family="Arial" font-size="12">dual_residual</text>
</svg>